# xmcd
#
# Track frame offsets: 
#        150
#        25641
#        50300
#        91496
#        118791
#        145247
#        176133
#        220746
#        253231
#        276469
#        298568
#        304169
#
# Disc length: 4419 seconds
#
# Revision: 0
# Processed by: cddbd v1.5.2PL0 Copyright (c) Steve Scherf et al.
# Submitted via: ExactAudioCopyFreeDBPlugin 1.0
#
DISCID=b711410c
DTITLE=Reggie Sears Unit - Transtitions
DYEAR=2005
DGENRE=Blues
TTITLE0=Transtitions
TTITLE1=Crosscut Saw
TTITLE2=Blue Monday
TTITLE3=Mellow Down Easy
TTITLE4=Love Rebound
TTITLE5=Matchbox Holds My Clothes
TTITLE6=Blues At Sunrise
TTITLE7=Born To Play The Blues
TTITLE8=Love Somebody
TTITLE9=Riding The Blinds
TTITLE10=Prelude
TTITLE11=I Had My Chance
EXTD=
EXTT0=
EXTT1=
EXTT2=
EXTT3=
EXTT4=
EXTT5=
EXTT6=
EXTT7=
EXTT8=
EXTT9=
EXTT10=
EXTT11=
PLAYORDER=
